<?xml version="1.0" encoding="UTF-8"?>
<svg width="90px" height="90px" viewBox="0 0 90 90" version="1.1" xmlns="http://www.w3.org/2000/svg" xmlns:xlink="http://www.w3.org/1999/xlink">
    <!-- Generator: Sketch 64 (93537) - https://sketch.com -->
    <title>Artboard</title>
    <desc>Created with Sketch.</desc>
    <g id="Artboard" stroke="none" stroke-width="1" fill="none" fill-rule="evenodd">
        <g id="b1" transform="translate(16.000000, 14.000000)" fill="#FFC107" fill-rule="nonzero">
            <path d="M57.8664795,50.4802556 C55.7639045,50.4892331 53.6653003,51.731115 52.0789381,49.2732861 C51.5518053,49.2752811 52.5891948,44.3416682 52.0541202,41.8758593 C51.5250019,41.8778543 50.4677581,41.8818443 49.9386398,41.8838393 C49.3916526,38.1921084 50.4349984,34.4923975 49.8870185,30.7956791 C49.871135,30.6919396 49.850288,30.6101449 49.8324191,30.5163804 L57.8664795,30.380721 C55.179194,30.380721 52.4919085,30.3777285 49.8056157,30.3757335 C49.1583641,27.3164147 47.1957621,29.473 46.6716074,27.1129257 C45.0514929,24.6570917 47.7139605,23.4142123 49.3181915,23.4072298 C48.7721971,20.9444134 50.387348,23.4032398 50.3764281,20.9384284 C50.3535956,16.0098031 50.3377121,11.0781852 48.1606833,7.3924393 C47.6136961,6.1605323 48.1318945,2.4628164 48.1189891,0 C41.6276112,0.0289274 34.5535083,0.0458848 28.172322,5.0193974 C22.89603,8.796913 16.3401255,3.5949738 11.1263746,7.7445552 C10.3381571,8.3729774 9.2521245,7.464259 8.2455092,7.1709953 C7.7283036,7.0243634 7.3153332,7.0333409 6.8755595,7.464259 C6.4407493,7.8961745 6.0476333,8.7510282 5.7835705,10.2981437 L7.4672189,10.2652264 C5.9870776,13.9938646 3.973847,10.3160986 1.6915901,11.7105974 C1.8692865,14.1714188 1.9427476,15.3983383 1.316343,16.6871025 C2.7895354,16.5544356 4.7372466,15.2497115 5.9235437,16.460671 L6.0079246,20.1524019 C5.4500175,20.7838166 4.7104432,20.4955404 3.914284,20.2232241 C3.1240811,19.9499103 2.2614098,19.695549 1.6280562,20.3668635 C1.7322916,21.5967754 1.9407622,24.0536069 2.0449975,25.2815239 C2.1442692,26.5084434 1.5526097,26.5583181 0.9450668,26.6301378 C1.5565806,26.5523332 2.7478413,26.4525836 3.32461,26.4226588 C3.3901293,27.5378587 3.5162044,29.6585342 3.5936363,30.9612634 C2.3755723,31.0340805 1.1714063,31.14979 0,31.3572691 L3.6134907,31.2964219 C3.6144834,31.3093893 3.6154761,31.3273442 3.6164688,31.3413091 C3.6869518,32.5752111 3.1766951,32.605136 2.6684239,32.6480283 C2.8550547,35.1038622 2.6565113,37.597601 3.187615,38.7856182 C3.6105125,38.7507058 4.0483008,38.720781 4.5049507,38.6988361 C3.6164688,39.3611731 3.1528699,41.2614021 3.0724598,43.4399323 C2.9831152,45.61946 3.2382436,48.073299 3.4794739,49.9056982 C3.5261316,48.6568338 3.9440655,52.3306098 4.0006504,51.0837404 C3.9301675,52.0213862 3.9629271,53.0258642 4.0185193,54.0293447 C4.0701406,55.0318277 4.1713978,56.0313182 4.2954874,56.9460216 C4.3758975,57.4008795 4.3897956,57.84676 4.4354605,58.2587257 C4.4860891,58.6696938 4.5684847,59.0467471 4.686618,59.3779156 C4.7432029,59.6841468 4.8246057,60.1180573 4.9685497,60.8911163 C4.837511,61.3559493 6.048626,61.5913582 8.5175138,61.7778899 C10.924853,61.9524516 13.2130662,62.0212788 15.5707696,61.9943464 C20.2544095,61.9424766 24.9479765,61.524526 29.6395581,60.9140587 C38.9045879,59.7948688 48.1716032,57.9155872 57.3443103,56.6447779 C58.3926197,55.406886 57.8704504,52.947062 57.8664795,50.4802556" id="Fill-4"></path>
        </g>
        <text id="Logo" font-family="Impact" font-size="48" font-style="condensed" font-weight="700" fill="#313842">
            <tspan x="-0.61328125" y="64">Logo</tspan>
        </text>
    </g>
</svg>